<svg width="133" height="43" viewBox="0 0 133 43" fill="none" xmlns="http://www.w3.org/2000/svg">
<path d="M8.76172 14.4336L8.99609 12.4414H14.6211L14.8555 14.4336C14.5977 14.7383 14.1602 15.0078 13.543 15.2422V26.2109C14.1602 26.4609 14.5977 26.7266 14.8555 27.0078L14.6211 29H8.99609L8.76172 27.0078C8.97266 26.7344 9.41406 26.4688 10.0859 26.2109V15.2422C9.42188 15.0078 8.98047 14.7383 8.76172 14.4336ZM23.2344 27.0078L22.9883 29H19.0039L13.6836 20.3633L17.6914 15.0312C17.2383 14.8125 16.9258 14.5977 16.7539 14.3867L16.9883 12.4414H22.4609L22.707 14.3867C22.4805 14.6445 22.0625 14.8984 21.4531 15.1484L17.3047 20.2695L21.1016 25.9766C22.125 26.1953 22.8359 26.5391 23.2344 27.0078ZM37.25 20.3047C37.25 21.9688 37.0664 23.3672 36.6992 24.5C36.332 25.6328 35.8164 26.543 35.1523 27.2305C34.4961 27.918 33.7227 28.4141 32.832 28.7188C31.9492 29.0234 30.9883 29.1758 29.9492 29.1758C28.5195 29.1758 27.3047 28.8945 26.3047 28.332C25.3125 27.7617 24.5547 26.8516 24.0312 25.6016C23.5156 24.3516 23.2578 22.6992 23.2578 20.6445C23.2578 17.8008 23.8984 15.6875 25.1797 14.3047C26.4688 12.9141 28.2188 12.2188 30.4297 12.2188C32.6953 12.2188 34.3984 12.8516 35.5391 14.1172C36.6797 15.375 37.25 17.4375 37.25 20.3047ZM33.6641 20.7148C33.6641 16.8789 32.5117 14.9609 30.207 14.9609C29.1289 14.9609 28.3047 15.375 27.7344 16.2031C27.5 16.5469 27.3125 17.0117 27.1719 17.5977C27.0312 18.1758 26.9375 18.8164 26.8906 19.5195C26.8438 20.2227 26.8477 20.9297 26.9023 21.6406C26.957 22.3438 27.0547 22.9961 27.1953 23.5977C27.3438 24.1992 27.5391 24.6875 27.7812 25.0625C28.3906 26.0078 29.2266 26.4805 30.2891 26.4805C31.3516 26.4805 32.1797 26.0391 32.7734 25.1562C33.3672 24.2656 33.6641 22.7852 33.6641 20.7148ZM42.6055 19.9531V26.2695C43.1992 26.4883 43.6367 26.7812 43.918 27.1484L43.6836 29H38.9844L38.7383 27.1484C39.0352 26.7812 39.4766 26.4883 40.0625 26.2695V15.1719C39.4062 14.9375 38.9492 14.6445 38.6914 14.293L38.9258 12.4414H43.8711L48.6523 21.7578C48.832 22.0938 49.0039 22.4883 49.168 22.9414C49.3398 23.3867 49.5117 23.8867 49.6836 24.4414L49.8477 25.0156L50.1172 24.9219C49.8906 23.5 49.7773 22.332 49.7773 21.418V15.1953C49.1836 14.9688 48.7461 14.668 48.4648 14.293L48.6992 12.4414H53.3984L53.6445 14.293C53.3477 14.668 52.9062 14.9688 52.3203 15.1953V29H48.5586L43.7305 19.6133C43.3867 18.9648 43.043 18.0625 42.6992 16.9062L42.5352 16.3555L42.2656 16.4492C42.4922 17.8711 42.6055 19.0391 42.6055 19.9531ZM62.3281 15.0547C61.7812 14.9141 61.2148 14.8438 60.6289 14.8438C60.0352 14.8438 59.5586 14.9883 59.1992 15.2773C58.832 15.5742 58.6484 15.9922 58.6484 16.5312C58.6484 17.0703 58.7852 17.4922 59.0586 17.7969C59.332 18.0938 59.8672 18.3555 60.6641 18.582L62.8086 19.2031C63.957 19.5391 64.8711 20.0664 65.5508 20.7852C66.2305 21.4961 66.5703 22.5391 66.5703 23.9141C66.5703 25 66.3008 25.9375 65.7617 26.7266C65.2227 27.5156 64.4883 28.125 63.5586 28.5547C62.6367 28.9766 61.5938 29.1875 60.4297 29.1875C59.4688 29.1875 58.4805 29.0664 57.4648 28.8242C56.4492 28.5742 55.6055 28.2266 54.9336 27.7812V27.2188C54.9336 27.0391 54.957 26.7656 55.0039 26.3984C55.0586 26.0312 55.1328 25.6484 55.2266 25.25C55.3281 24.8438 55.4453 24.5 55.5781 24.2188H57.8633C58.1211 24.7266 58.2734 25.3906 58.3203 26.2109C58.8594 26.4531 59.5117 26.5742 60.2773 26.5742C61.0195 26.5742 61.6289 26.3984 62.1055 26.0469C62.5898 25.6953 62.832 25.1914 62.832 24.5352C62.832 24.2227 62.8086 23.9688 62.7617 23.7734C62.7148 23.5703 62.5664 23.3555 62.3164 23.1289C62.0664 22.9023 61.7109 22.7148 61.25 22.5664L58.7773 21.8516C56.2617 21.1406 55.0039 19.5391 55.0039 17.0469C55.0039 16.0781 55.2422 15.2344 55.7188 14.5156C56.2031 13.7969 56.875 13.2383 57.7344 12.8398C58.5938 12.4414 59.5938 12.2422 60.7344 12.2422C62.4453 12.2422 64.1133 12.6289 65.7383 13.4023V13.9531C65.7383 14.1328 65.7109 14.4102 65.6562 14.7852C65.6094 15.1523 65.5352 15.5352 65.4336 15.9336C65.3398 16.332 65.2227 16.6719 65.082 16.9531H62.8086C62.5352 16.5625 62.375 15.9297 62.3281 15.0547ZM80.6094 23C80.6094 25.0938 80.1328 26.6484 79.1797 27.6641C78.2344 28.6797 76.6992 29.1875 74.5742 29.1875C73.1523 29.1875 72.0195 28.9688 71.1758 28.5312C70.332 28.0859 69.7266 27.4062 69.3594 26.4922C68.9922 25.5781 68.8086 24.4141 68.8086 23V15.2422C68.1914 15.0156 67.75 14.7461 67.4844 14.4336L67.7188 12.4414H73.3438L73.5781 14.4336C73.3203 14.7383 72.8828 15.0078 72.2656 15.2422V23.0938C72.2656 24.25 72.4531 25.1055 72.8281 25.6602C73.2031 26.207 73.8789 26.4805 74.8555 26.4805C75.832 26.4805 76.5195 26.1992 76.918 25.6367C77.3164 25.0664 77.5156 24.2188 77.5156 23.0938V15.2422C76.8516 15.0078 76.4102 14.7383 76.1914 14.4336L76.4375 12.4414H81.6875L81.9336 14.4336C81.6758 14.7383 81.2344 15.0078 80.6094 15.2422V23ZM92.5391 24.6055L94.3086 24.8281V29H83.3164L83.082 27.0078C83.293 26.7344 83.7344 26.4688 84.4062 26.2109V15.2422C83.7422 15.0078 83.3008 14.7383 83.082 14.4336L83.3164 12.4414H88.9414L89.1758 14.4336C88.918 14.7383 88.4805 15.0078 87.8633 15.2422V26.3867H91.6484C91.8594 25.543 92.1562 24.9492 92.5391 24.6055ZM95.1289 14.4336L95.3633 12.4414H100.988L101.223 14.4336C100.965 14.7383 100.527 15.0078 99.9102 15.2422V26.2109C100.527 26.4609 100.965 26.7266 101.223 27.0078L100.988 29H95.3633L95.1289 27.0078C95.3398 26.7344 95.7812 26.4688 96.4531 26.2109V15.2422C95.7891 15.0078 95.3477 14.7383 95.1289 14.4336ZM109.602 27.0078L109.355 29H105.371L100.051 20.3633L104.059 15.0312C103.605 14.8125 103.293 14.5977 103.121 14.3867L103.355 12.4414H108.828L109.074 14.3867C108.848 14.6445 108.43 14.8984 107.82 15.1484L103.672 20.2695L107.469 25.9766C108.492 26.1953 109.203 26.5391 109.602 27.0078ZM122.914 23C122.914 25.0938 122.438 26.6484 121.484 27.6641C120.539 28.6797 119.004 29.1875 116.879 29.1875C115.457 29.1875 114.324 28.9688 113.48 28.5312C112.637 28.0859 112.031 27.4062 111.664 26.4922C111.297 25.5781 111.113 24.4141 111.113 23V15.2422C110.496 15.0156 110.055 14.7461 109.789 14.4336L110.023 12.4414H115.648L115.883 14.4336C115.625 14.7383 115.188 15.0078 114.57 15.2422V23.0938C114.57 24.25 114.758 25.1055 115.133 25.6602C115.508 26.207 116.184 26.4805 117.16 26.4805C118.137 26.4805 118.824 26.1992 119.223 25.6367C119.621 25.0664 119.82 24.2188 119.82 23.0938V15.2422C119.156 15.0078 118.715 14.7383 118.496 14.4336L118.742 12.4414H123.992L124.238 14.4336C123.98 14.7383 123.539 15.0078 122.914 15.2422V23Z" fill="#363030"/>
</svg>
